<svg version="1.1" class="index-logo-svg" xmlns:ev="http://www.w3.org/2001/xml-events" xmlns="http://www.w3.org/2000/svg" xmlns:xlink="http://www.w3.org/1999/xlink" x="0px" y="0px" width="295px" height="55px" viewBox="0 0 295 55" enable-background="new 0 0 295 55" xml:space="preserve">
                <path fill="#EE4444" d="M12.664,0L0,55h281.587L294.25,0H12.664z"></path>
            <path fill="#FFFFFF" d="M102.901,29.706h8.454v-3.52h-8.454v-3.648h9.607v-3.519H98.981v17.982h13.656v-3.519h-9.736V29.706z
                M68.249,18.89l-7.686,18.111h4.022l1.64-4.033h7.583l1.64,4.033h4.124L71.887,18.89H68.249z M67.634,29.474l2.383-5.831
                l2.382,5.831H67.634z M57.945,25.004v-0.051c0-1.695-0.538-3.108-1.537-4.11c-1.178-1.182-2.946-1.824-5.226-1.824h-8.198v17.982
                h3.945v-5.754h3.1l3.843,5.754h4.611l-4.381-6.422C56.382,29.731,57.945,27.907,57.945,25.004z M53.949,25.21
                c0,1.516-1.102,2.543-3.023,2.543h-3.997V22.59h3.919c1.922,0,3.101,0.873,3.101,2.569V25.21z M89.32,33.661
                c-3.075,0-5.201-2.568-5.201-5.651v-0.052c0-3.082,2.177-5.6,5.201-5.6c1.793,0,3.202,0.771,4.585,2.03l2.511-2.903
                c-1.665-1.644-3.689-2.774-7.071-2.774c-5.508,0-9.351,4.187-9.351,9.299v0.051c0,5.164,3.92,9.248,9.197,9.248
                c3.459,0,5.509-1.233,7.354-3.211l-2.511-2.543C92.624,32.839,91.369,33.661,89.32,33.661z M132.061,33.661
                c-3.074,0-5.201-2.568-5.201-5.651v-0.052c0-3.082,2.178-5.6,5.201-5.6c1.793,0,3.203,0.771,4.586,2.03l2.511-2.903
                c-1.666-1.644-3.69-2.774-7.071-2.774c-5.508,0-9.351,4.187-9.351,9.299v0.051c0,5.164,3.919,9.248,9.197,9.248
                c3.459,0,5.508-1.233,7.353-3.211l-2.511-2.543C135.366,32.839,134.111,33.661,132.061,33.661z M150.685,18.711
                c-5.534,0-9.557,4.187-9.557,9.299v0.051c0,5.112,3.972,9.248,9.505,9.248c5.534,0,9.557-4.187,9.557-9.299v-0.052
                C160.19,22.846,156.219,18.711,150.685,18.711z M156.065,28.061c0,3.083-2.204,5.6-5.38,5.6c-3.177,0-5.432-2.568-5.432-5.651
                v-0.052c0-3.082,2.204-5.6,5.38-5.6c3.177,0,5.432,2.569,5.432,5.652V28.061z M225.793,18.711c-5.534,0-9.556,4.187-9.556,9.299
                v0.051c0,5.112,3.971,9.248,9.505,9.248c5.534,0,9.555-4.187,9.555-9.299v-0.052C235.297,22.846,231.327,18.711,225.793,18.711z
                M231.173,28.061c0,3.083-2.203,5.6-5.38,5.6s-5.431-2.568-5.431-5.651v-0.052c0-3.082,2.203-5.6,5.38-5.6s5.431,2.569,5.431,5.652
                V28.061z M241.989,19.019h-3.945v17.982h12.886v-3.596h-8.941V19.019z M175.059,30.091l-8.403-11.072h-3.637v17.982h3.894V25.57
                l8.685,11.431h3.356V19.019h-3.895V30.091z M213.984,25.004v-0.051c0-1.695-0.537-3.108-1.537-4.11
                c-1.178-1.182-2.946-1.824-5.226-1.824h-8.198v17.982h3.945v-5.754h3.1l3.843,5.754h4.612l-4.381-6.422
                C212.422,29.731,213.984,27.907,213.984,25.004z M209.988,25.21c0,1.516-1.101,2.543-3.024,2.543h-3.996V22.59h3.92
                c1.921,0,3.1,0.873,3.1,2.569V25.21z M181.57,22.667h5.457v14.334h3.946V22.667h5.457v-3.648h-14.86V22.667z"></path>
            </svg>