<svg xmlns="http://www.w3.org/2000/svg" viewBox="-29 -134.8 260.6 301.8"><path fill="#DEDEDE" d="M227.3 3.3c-4.8-18.1-13.3-34.6-24.7-48.7l7.5-7.5c5.3-5.3 5.3-13.9 0-19.2-2.9-2.9-6.8-4.1-10.6-3.8-3.1.2-6.2 1.4-8.6 3.8l-7.5 7.5c-7.9-6.4-16.7-11.9-26-16.3-8.4-4-17.3-7.2-26.5-9.3h-.3c-4-.9-8.1-1.7-12.2-2.3v-8.2h6c9.4 0 17-7.6 17-17s-7.6-17-17-17H77.3c-1.5 0-2.9.3-4.3.6-7.3 1.9-12.7 8.5-12.7 16.4 0 9.4 7.6 17 17 17h7.1v8.3C40.5-86.8 3.7-59.3-15.3-21.3c-3.8 7.6-6.9 15.5-9.1 23.8-3 10.9-4.6 22.3-4.6 34.2C-29 93 6.8 140.9 56.9 159.1c13.9 5 28.8 7.9 44.4 7.9 6.5 0 12.9-.5 19.1-1.4.7-.1 1.3-.3 2-.4 18.3-3 35.4-9.8 50.4-19.6 20.6-13.6 37.1-32.8 47.3-55.4 7.4-16.4 11.6-34.4 11.6-53.5-.1-11.5-1.6-22.7-4.4-33.4zm-57.9 101.5c-12.4 12.4-27.6 20.9-44.2 25.1-5.7 1.4-11.6 2.2-17.6 2.6-.9.1-1.6.2-2.5.2-1.3.1-2.6.3-3.8.3-3.5 0-7.1-.2-10.5-.6-21.7-2.4-41.9-11.9-57.6-27.6C15 86.6 5 62.4 5 36.7c0-2 .2-4 .3-6C6.8 7.2 16.5-14.7 33.2-31.4c2.1-2.1 4.3-4 6.5-5.9C57-51.7 78.5-59.6 101.3-59.6c4.2 0 8.3.3 12.3.8 12.6 1.6 24.7 5.7 35.6 12 .1.1.2.2.4.2 7.1 4.2 13.8 9.1 19.8 15.1 1.4 1.4 2.7 2.9 4 4.4 0 0 .1.1.1.2 2.6 3 5 6.2 7.3 9.5 1.4 2.1 2.9 4.3 4.1 6.5 7.7 13.5 12.1 28.7 12.6 44.7 0 1 .1 1.9.1 2.9 0 25.7-10 49.9-28.2 68.1z"/><circle fill="none" stroke="#D22856" stroke-width="10" stroke-miterlimit="10" cx="101.3" cy="38.1" r="95.7"/><g fill="#D22856"><path d="M97.5 75.9H37.6V63.3l21.5-21.7c6.4-6.5 10.5-11 12.5-13.6 2-2.5 3.4-4.9 4.2-7 .9-2.1 1.3-4.4 1.3-6.7 0-3.4-.9-6-2.8-7.7-1.9-1.7-4.4-2.5-7.6-2.5-3.3 0-6.5.8-9.7 2.3-3.1 1.5-6.4 3.7-9.8 6.5L37.4 1.3c4.2-3.6 7.7-6.1 10.5-7.6S53.7-9 57-9.8c3.3-.8 7-1.2 11-1.2 5.4 0 10.1 1 14.2 2.9 4.1 2 7.3 4.7 9.6 8.2 2.3 3.5 3.4 7.5 3.4 12.1 0 3.9-.7 7.6-2.1 11.1-1.4 3.5-3.5 7-6.4 10.6-2.9 3.6-8 8.8-15.4 15.5l-11 10.4v.8h37.3v15.3zM167.9 58.2h-10.3V76h-17.7V58.2h-36.6V45.6l37.6-55.3h16.7v53.8h10.3v14.1zm-28-14.1V29.6c0-2.4.1-5.9.3-10.5.2-4.6.4-7.3.5-8h-.5c-1.4 3.2-3.2 6.3-5.2 9.4l-15.7 23.7h20.6z"/></g></svg>