<?xml version="1.0" encoding="utf-8"?>
<!-- Generator: Adobe Illustrator 18.1.1, SVG Export Plug-In . SVG Version: 6.00 Build 0)  -->
<svg version="1.1" id="Layer_1" xmlns="http://www.w3.org/2000/svg" xmlns:xlink="http://www.w3.org/1999/xlink" x="0px" y="0px"
	 viewBox="-29 -134.8 260.6 301.8" enable-background="new -29 -134.8 260.6 301.8" xml:space="preserve">
<g>
	<path d="M227.3,3.3c-4.8-18.1-13.3-34.6-24.7-48.7l7.5-7.5c5.3-5.3,5.3-13.9,0-19.2c-2.9-2.9-6.8-4.1-10.6-3.8
		c-3.1,0.2-6.2,1.4-8.6,3.8l-7.5,7.5c-7.9-6.4-16.7-11.9-26-16.3c-8.4-4-17.3-7.2-26.5-9.3c-0.1,0-0.2,0-0.3,0
		c-4-0.9-8.1-1.7-12.2-2.3v-7v-0.1v-1.1h6c9.4,0,17-7.6,17-17c0-9.4-7.6-17-17-17h-6h-34h-7.1c-1.5,0-2.9,0.3-4.3,0.6c0,0,0,0,0,0
		c-7.3,1.9-12.7,8.5-12.7,16.4c0,9.4,7.6,17,17,17h7.1v8.3C40.5-86.8,3.7-59.3-15.3-21.3c-3.8,7.6-6.9,15.5-9.1,23.8
		c-3,10.9-4.6,22.3-4.6,34.2C-29,93,6.8,140.9,56.9,159.1c13.9,5,28.8,7.9,44.4,7.9c6.5,0,12.9-0.5,19.1-1.4c0.7-0.1,1.3-0.3,2-0.4
		c18.3-3,35.4-9.8,50.4-19.6c20.6-13.6,37.1-32.8,47.3-55.4c7.4-16.4,11.6-34.4,11.6-53.5C231.6,25.2,230.1,14,227.3,3.3z
		 M169.4,104.8c-12.4,12.4-27.6,20.9-44.2,25.1c-5.7,1.4-11.6,2.2-17.6,2.6c-0.9,0.1-1.6,0.2-2.5,0.2c-1.3,0.1-2.6,0.3-3.8,0.3
		c-3.5,0-7.1-0.2-10.5-0.6c-21.7-2.4-41.9-11.9-57.6-27.6C15,86.6,5,62.4,5,36.7c0-2,0.2-4,0.3-6C6.8,7.2,16.5-14.7,33.2-31.4
		c2.1-2.1,4.3-4,6.5-5.9l0,0C57-51.7,78.5-59.6,101.3-59.6c4.2,0,8.3,0.3,12.3,0.8c12.6,1.6,24.7,5.7,35.6,12
		c0.1,0.1,0.2,0.2,0.4,0.2c7.1,4.2,13.8,9.1,19.8,15.1c1.4,1.4,2.7,2.9,4,4.4c0,0,0.1,0.1,0.1,0.2c2.6,3,5,6.2,7.3,9.5
		c1.4,2.1,2.9,4.3,4.1,6.5c7.7,13.5,12.1,28.7,12.6,44.7c0,1,0.1,1.9,0.1,2.9C197.6,62.4,187.6,86.6,169.4,104.8z" fill="#eeeeee" />
</g>
<circle fill="none" stroke="#D22856" stroke-width="10" stroke-miterlimit="10" cx="101.3" cy="37.2" r="97.8"/>
<text transform="matrix(1 0 0 1 32.8259 75.9204)" fill="#d22856" font-family="'OpenSans-Bold'" font-size="120">24</text>
</svg>
